<svg xmlns="http://www.w3.org/2000/svg" xmlns:xlink="http://www.w3.org/1999/xlink" width="500" zoomAndPan="magnify" viewBox="0 0 375 374.999991" height="500" preserveAspectRatio="xMidYMid meet" version="1.0"><defs><clipPath id="9da0ece9df"><path d="M 112.636719 112.5 L 262.636719 112.5 L 262.636719 262.5 L 112.636719 262.5 Z M 112.636719 112.5 " clip-rule="nonzero"/></clipPath><clipPath id="389ab633e5"><path d="M 256.300781 212.863281 L 247.636719 208.539062 L 247.636719 207.585938 L 257.636719 207.585938 C 259.015625 207.585938 260.136719 206.46875 260.136719 205.09375 L 260.136719 187.625 C 260.136719 182.296875 258.058594 177.28125 254.277344 173.507812 C 250.5 169.738281 245.476562 167.664062 240.136719 167.664062 C 229.109375 167.664062 220.136719 176.617188 220.136719 187.625 L 220.136719 205.09375 C 220.136719 206.46875 221.253906 207.585938 222.636719 207.585938 L 232.636719 207.585938 L 232.636719 208.539062 L 223.972656 212.863281 C 220.253906 214.71875 217.882812 218.359375 217.660156 222.460938 C 216.300781 221.214844 214.703125 220.199219 212.914062 219.484375 L 197.636719 213.382812 L 197.636719 209.433594 C 201.519531 206.726562 204.25 202.488281 204.953125 197.605469 L 206.355469 197.605469 C 209.820312 197.605469 212.636719 194.792969 212.636719 191.335938 L 212.636719 186.410156 C 212.636719 184.988281 212.152344 183.628906 211.289062 182.535156 C 212.566406 176.6875 211.257812 170.667969 207.609375 165.839844 C 203.691406 160.65625 197.710938 157.679688 191.203125 157.679688 L 184.070312 157.679688 C 177.5625 157.679688 171.582031 160.65625 167.664062 165.839844 C 164.015625 170.667969 162.707031 176.679688 163.984375 182.53125 C 163.121094 183.625 162.636719 184.984375 162.636719 186.410156 L 162.636719 191.335938 C 162.636719 194.792969 165.453125 197.605469 168.917969 197.605469 L 170.316406 197.605469 C 171.019531 202.488281 173.753906 206.726562 177.636719 209.433594 L 177.636719 213.382812 L 162.359375 219.484375 C 160.566406 220.199219 158.972656 221.214844 157.613281 222.460938 C 157.390625 218.359375 155.019531 214.71875 151.300781 212.863281 L 142.636719 208.539062 L 142.636719 205.09375 C 143.105469 204.742188 143.554688 204.355469 143.976562 203.933594 C 146.335938 201.578125 147.636719 198.445312 147.636719 195.109375 L 147.636719 183.410156 C 149.214844 181.042969 150.136719 178.203125 150.136719 175.148438 C 150.136719 173.769531 149.015625 172.652344 147.636719 172.652344 L 135.136719 172.652344 C 126.863281 172.652344 120.136719 179.367188 120.136719 187.625 C 120.136719 189.003906 121.253906 190.121094 122.636719 190.121094 L 122.636719 195.109375 C 122.636719 199.183594 124.601562 202.804688 127.636719 205.085938 L 127.636719 208.539062 L 118.972656 212.863281 C 115.0625 214.816406 112.636719 218.734375 112.636719 223.09375 L 112.636719 235.035156 C 112.636719 236.414062 113.753906 237.53125 115.136719 237.53125 L 152.636719 237.53125 L 152.636719 259.988281 C 152.636719 261.367188 153.753906 262.484375 155.136719 262.484375 L 220.136719 262.484375 C 221.515625 262.484375 222.636719 261.367188 222.636719 259.988281 L 222.636719 237.53125 L 260.136719 237.53125 C 261.515625 237.53125 262.636719 236.414062 262.636719 235.035156 L 262.636719 223.09375 C 262.636719 218.734375 260.210938 214.816406 256.300781 212.863281 Z M 142.636719 195.109375 C 142.636719 197.109375 141.855469 198.992188 140.441406 200.40625 C 139.023438 201.820312 137.140625 202.597656 135.136719 202.597656 C 131 202.597656 127.636719 199.238281 127.636719 195.109375 L 127.636719 190.121094 L 135.136719 190.121094 C 137.867188 190.121094 140.429688 189.382812 142.636719 188.105469 Z M 137.636719 207.339844 L 137.636719 210.082031 C 137.636719 211.457031 136.515625 212.578125 135.136719 212.578125 C 133.757812 212.578125 132.636719 211.457031 132.636719 210.082031 L 132.636719 207.335938 C 133.445312 207.5 134.28125 207.585938 135.136719 207.585938 C 135.984375 207.585938 136.824219 207.503906 137.636719 207.339844 Z M 125.453125 185.128906 C 126.566406 180.828125 130.484375 177.644531 135.136719 177.644531 L 144.820312 177.644531 C 143.707031 181.945312 139.789062 185.128906 135.136719 185.128906 Z M 152.636719 232.539062 L 117.636719 232.539062 L 117.636719 223.09375 C 117.636719 220.636719 119.003906 218.425781 121.207031 217.328125 L 128.550781 213.664062 C 129.824219 215.988281 132.300781 217.570312 135.136719 217.570312 C 137.972656 217.570312 140.445312 215.988281 141.722656 213.664062 L 149.066406 217.328125 C 151.269531 218.425781 152.636719 220.636719 152.636719 223.09375 Z M 207.636719 186.410156 L 207.636719 191.335938 C 207.636719 192.042969 207.0625 192.617188 206.355469 192.617188 L 205.136719 192.617188 L 205.136719 185.128906 L 206.355469 185.128906 C 206.683594 185.128906 206.9375 185.253906 207.085938 185.359375 C 207.433594 185.601562 207.636719 185.984375 207.636719 186.410156 Z M 170.136719 192.617188 L 168.917969 192.617188 C 168.210938 192.617188 167.636719 192.042969 167.636719 191.335938 L 167.636719 186.410156 C 167.636719 185.984375 167.835938 185.601562 168.183594 185.359375 C 168.335938 185.253906 168.585938 185.128906 168.917969 185.128906 L 170.136719 185.128906 Z M 170.136719 180.140625 L 168.917969 180.140625 C 168.824219 180.140625 168.734375 180.144531 168.640625 180.148438 C 168.125 176.152344 169.167969 172.136719 171.65625 168.847656 C 174.621094 164.921875 179.148438 162.671875 184.070312 162.671875 L 191.203125 162.671875 C 196.125 162.671875 200.652344 164.921875 203.617188 168.847656 C 206.105469 172.136719 207.152344 176.15625 206.632812 180.148438 C 206.539062 180.144531 206.449219 180.140625 206.355469 180.140625 L 205.136719 180.140625 C 205.136719 178.761719 204.015625 177.644531 202.636719 177.644531 L 199.753906 177.644531 C 197.71875 177.644531 195.808594 178.433594 194.371094 179.867188 L 192.636719 181.601562 L 190.703125 179.667969 C 189.394531 178.363281 187.652344 177.644531 185.800781 177.644531 L 172.636719 177.644531 C 171.253906 177.644531 170.136719 178.761719 170.136719 180.140625 Z M 175.136719 195.109375 L 175.136719 182.632812 L 185.800781 182.632812 C 186.316406 182.632812 186.800781 182.835938 187.167969 183.199219 L 190.867188 186.894531 C 191.84375 187.867188 193.425781 187.867188 194.402344 186.894531 L 197.910156 183.394531 C 198.402344 182.90625 199.054688 182.632812 199.75 182.632812 L 200.136719 182.632812 L 200.136719 195.109375 C 200.136719 201.992188 194.527344 207.585938 187.636719 207.585938 C 180.742188 207.585938 175.136719 201.992188 175.136719 195.109375 Z M 192.636719 211.847656 L 192.636719 215.074219 C 192.636719 217.824219 190.394531 220.0625 187.636719 220.0625 C 184.878906 220.0625 182.636719 217.824219 182.636719 215.074219 L 182.636719 211.847656 C 184.222656 212.320312 185.898438 212.578125 187.636719 212.578125 C 189.375 212.578125 191.050781 212.320312 192.636719 211.847656 Z M 217.636719 257.492188 L 210.136719 257.492188 L 210.136719 247.511719 C 210.136719 246.132812 209.015625 245.015625 207.636719 245.015625 C 206.253906 245.015625 205.136719 246.132812 205.136719 247.511719 L 205.136719 257.492188 L 170.136719 257.492188 L 170.136719 247.511719 C 170.136719 246.132812 169.015625 245.015625 167.636719 245.015625 C 166.253906 245.015625 165.136719 246.132812 165.136719 247.511719 L 165.136719 257.492188 L 157.636719 257.492188 L 157.636719 233.816406 C 157.636719 229.519531 160.21875 225.714844 164.214844 224.117188 L 178.25 218.515625 C 179.65625 222.328125 183.332031 225.054688 187.636719 225.054688 C 191.9375 225.054688 195.617188 222.328125 197.023438 218.515625 L 211.058594 224.117188 C 215.054688 225.714844 217.636719 229.519531 217.636719 233.816406 Z M 247.636719 195.109375 C 247.636719 199.238281 244.273438 202.597656 240.136719 202.597656 C 236 202.597656 232.636719 199.238281 232.636719 195.109375 L 232.636719 187.625 L 233.589844 187.625 L 235.402344 191.234375 C 235.757812 191.953125 236.441406 192.453125 237.234375 192.582031 C 238.03125 192.710938 238.835938 192.453125 239.402344 191.882812 L 243.671875 187.625 L 247.636719 187.625 Z M 242.636719 207.335938 L 242.636719 210.082031 C 242.636719 211.457031 241.515625 212.578125 240.136719 212.578125 C 238.757812 212.578125 237.636719 211.457031 237.636719 210.082031 L 237.636719 207.335938 C 238.445312 207.5 239.28125 207.585938 240.136719 207.585938 C 240.992188 207.585938 241.828125 207.5 242.636719 207.335938 Z M 230.144531 202.597656 L 225.136719 202.597656 L 225.136719 187.625 C 225.136719 179.367188 231.863281 172.652344 240.136719 172.652344 C 244.140625 172.652344 247.910156 174.210938 250.742188 177.035156 C 253.574219 179.867188 255.136719 183.628906 255.136719 187.625 L 255.136719 202.597656 L 250.128906 202.597656 C 251.703125 200.511719 252.636719 197.917969 252.636719 195.109375 L 252.636719 185.128906 C 252.636719 183.75 251.515625 182.632812 250.136719 182.632812 L 242.636719 182.632812 C 241.972656 182.632812 241.335938 182.898438 240.867188 183.363281 L 238.320312 185.90625 L 237.371094 184.011719 C 236.949219 183.167969 236.082031 182.632812 235.136719 182.632812 L 230.136719 182.632812 C 228.753906 182.632812 227.636719 183.75 227.636719 185.128906 L 227.636719 195.109375 C 227.636719 197.917969 228.570312 200.511719 230.144531 202.597656 Z M 257.636719 232.539062 L 222.636719 232.539062 L 222.636719 223.09375 C 222.636719 220.636719 224.003906 218.425781 226.207031 217.328125 L 233.550781 213.664062 C 234.824219 215.988281 237.300781 217.570312 240.136719 217.570312 C 242.972656 217.570312 245.445312 215.988281 246.722656 213.664062 L 254.066406 217.328125 C 256.269531 218.425781 257.636719 220.636719 257.636719 223.09375 Z M 127.636719 152.691406 L 127.636719 155.1875 C 127.636719 159.3125 131 162.671875 135.136719 162.671875 C 139.273438 162.671875 142.636719 159.3125 142.636719 155.1875 L 142.636719 152.691406 C 142.636719 150.179688 143.652344 147.78125 145.421875 146.117188 C 148.347656 143.363281 150.023438 139.589844 150.125 135.605469 L 173.351562 132.296875 C 174.117188 134.683594 175.476562 136.867188 177.351562 138.632812 C 179.121094 140.296875 180.136719 142.691406 180.136719 145.203125 L 180.136719 147.699219 C 180.136719 151.828125 183.5 155.1875 187.636719 155.1875 C 191.773438 155.1875 195.136719 151.828125 195.136719 147.699219 L 195.136719 145.203125 C 195.136719 142.71875 196.183594 140.292969 198.007812 138.550781 C 199.851562 136.789062 201.183594 134.648438 201.933594 132.296875 L 225.148438 135.605469 C 225.25 139.589844 226.921875 143.363281 229.851562 146.117188 C 231.621094 147.78125 232.636719 150.179688 232.636719 152.691406 L 232.636719 155.1875 C 232.636719 159.3125 236 162.671875 240.136719 162.671875 C 244.273438 162.671875 247.636719 159.3125 247.636719 155.1875 L 247.636719 152.691406 C 247.636719 152.6875 247.636719 152.6875 247.636719 152.6875 C 247.636719 150.203125 248.683594 147.78125 250.507812 146.039062 C 253.492188 143.1875 255.136719 139.347656 255.136719 135.222656 C 255.136719 131.085938 253.398438 127.097656 250.367188 124.273438 C 247.292969 121.410156 243.28125 119.992188 239.070312 120.289062 C 232.847656 120.71875 227.675781 124.953125 225.847656 130.664062 L 202.625 127.355469 C 202.523438 123.355469 200.804688 119.523438 197.867188 116.789062 C 194.792969 113.925781 190.78125 112.511719 186.570312 112.804688 C 179.066406 113.324219 173.089844 119.371094 172.660156 126.867188 C 172.652344 127.03125 172.652344 127.191406 172.648438 127.355469 L 149.425781 130.664062 C 147.597656 124.953125 142.425781 120.71875 136.203125 120.289062 C 131.992188 119.996094 127.980469 121.414062 124.90625 124.273438 C 121.875 127.097656 120.136719 131.085938 120.136719 135.222656 C 120.136719 139.347656 121.78125 143.1875 124.765625 146.039062 C 126.589844 147.78125 127.636719 150.203125 127.636719 152.691406 Z M 240.136719 157.679688 C 238.757812 157.679688 237.636719 156.5625 237.636719 155.1875 L 242.636719 155.1875 C 242.636719 156.5625 241.515625 157.679688 240.136719 157.679688 Z M 230.152344 134.636719 C 230.4375 129.640625 234.417969 125.613281 239.417969 125.265625 C 242.234375 125.070312 244.90625 126.015625 246.957031 127.921875 C 249.007812 129.832031 250.136719 132.425781 250.136719 135.222656 C 250.136719 137.972656 249.039062 140.53125 247.050781 142.433594 C 244.859375 144.523438 243.398438 147.265625 242.863281 150.195312 L 237.417969 150.195312 C 236.890625 147.246094 235.449219 144.523438 233.28125 142.484375 C 231.125 140.457031 229.984375 137.597656 230.152344 134.636719 Z M 187.636719 150.195312 C 186.257812 150.195312 185.136719 149.074219 185.136719 147.699219 L 190.136719 147.699219 C 190.136719 149.074219 189.015625 150.195312 187.636719 150.195312 Z M 177.652344 127.152344 C 177.9375 122.15625 181.917969 118.128906 186.917969 117.78125 C 189.730469 117.589844 192.40625 118.527344 194.457031 120.4375 C 196.507812 122.347656 197.636719 124.9375 197.636719 127.738281 C 197.636719 130.484375 196.539062 133.046875 194.550781 134.945312 C 192.359375 137.039062 190.898438 139.777344 190.363281 142.710938 L 184.917969 142.710938 C 184.390625 139.761719 182.949219 137.039062 180.78125 135 C 178.625 132.972656 177.484375 130.113281 177.652344 127.152344 Z M 135.136719 157.679688 C 133.757812 157.679688 132.636719 156.5625 132.636719 155.1875 L 137.636719 155.1875 C 137.636719 156.5625 136.515625 157.679688 135.136719 157.679688 Z M 128.316406 127.921875 C 130.367188 126.015625 133.039062 125.074219 135.855469 125.265625 C 140.851562 125.613281 144.835938 129.640625 145.121094 134.636719 C 145.289062 137.597656 144.148438 140.457031 141.992188 142.484375 C 139.824219 144.523438 138.382812 147.246094 137.855469 150.195312 L 132.410156 150.195312 C 131.875 147.265625 130.414062 144.527344 128.222656 142.433594 C 126.234375 140.53125 125.136719 137.972656 125.136719 135.222656 C 125.136719 132.425781 126.265625 129.832031 128.316406 127.921875 Z M 127.636719 135.222656 C 127.636719 131.09375 131 127.738281 135.136719 127.738281 C 136.515625 127.738281 137.636719 128.855469 137.636719 130.234375 C 137.636719 131.609375 136.515625 132.726562 135.136719 132.726562 C 133.757812 132.726562 132.636719 133.847656 132.636719 135.222656 C 132.636719 136.601562 131.515625 137.71875 130.136719 137.71875 C 128.753906 137.71875 127.636719 136.601562 127.636719 135.222656 Z M 180.136719 127.738281 C 180.136719 123.609375 183.5 120.25 187.636719 120.25 C 189.015625 120.25 190.136719 121.367188 190.136719 122.746094 C 190.136719 124.125 189.015625 125.242188 187.636719 125.242188 C 186.257812 125.242188 185.136719 126.363281 185.136719 127.738281 C 185.136719 129.117188 184.015625 130.234375 182.636719 130.234375 C 181.253906 130.234375 180.136719 129.117188 180.136719 127.738281 Z M 232.636719 135.222656 C 232.636719 131.09375 236 127.738281 240.136719 127.738281 C 241.515625 127.738281 242.636719 128.855469 242.636719 130.234375 C 242.636719 131.609375 241.515625 132.726562 240.136719 132.726562 C 238.757812 132.726562 237.636719 133.847656 237.636719 135.222656 C 237.636719 136.601562 236.515625 137.71875 235.136719 137.71875 C 233.753906 137.71875 232.636719 136.601562 232.636719 135.222656 Z M 232.636719 135.222656 " clip-rule="nonzero"/></clipPath><linearGradient x1="13.858034" gradientTransform="matrix(0.3125, 0, 0, 0.311914, 107.63637, 107.774777)" y1="493.857976" x2="494.267027" gradientUnits="userSpaceOnUse" y2="13.448983" id="f61692606a"><stop stop-opacity="1" stop-color="rgb(6.698608%, 4.699707%, 39.99939%)" offset="0"/><stop stop-opacity="1" stop-color="rgb(6.698608%, 4.699707%, 39.99939%)" offset="0.0625"/><stop stop-opacity="1" stop-color="rgb(6.698608%, 4.699707%, 39.99939%)" offset="0.078125"/><stop stop-opacity="1" stop-color="rgb(6.698608%, 4.699707%, 39.99939%)" offset="0.0859375"/><stop stop-opacity="1" stop-color="rgb(8.642578%, 7.119751%, 52.523804%)" offset="0.0898438"/><stop stop-opacity="1" stop-color="rgb(10.586548%, 9.539795%, 65.049744%)" offset="0.09375"/><stop stop-opacity="1" stop-color="rgb(11.135864%, 10.194397%, 65.293884%)" offset="0.0976562"/><stop stop-opacity="1" stop-color="rgb(11.685181%, 10.850525%, 65.539551%)" offset="0.101562"/><stop stop-opacity="1" stop-color="rgb(12.234497%, 11.506653%, 65.783691%)" offset="0.105469"/><stop stop-opacity="1" stop-color="rgb(12.783813%, 12.162781%, 66.029358%)" offset="0.109375"/><stop stop-opacity="1" stop-color="rgb(13.331604%, 12.817383%, 66.273499%)" offset="0.113281"/><stop stop-opacity="1" stop-color="rgb(13.88092%, 13.473511%, 66.519165%)" offset="0.117188"/><stop stop-opacity="1" stop-color="rgb(14.430237%, 14.129639%, 66.763306%)" offset="0.121094"/><stop stop-opacity="1" stop-color="rgb(14.979553%, 14.785767%, 67.008972%)" offset="0.125"/><stop stop-opacity="1" stop-color="rgb(15.52887%, 15.440369%, 67.253113%)" offset="0.128906"/><stop stop-opacity="1" stop-color="rgb(16.078186%, 16.096497%, 67.497253%)" offset="0.132812"/><stop stop-opacity="1" stop-color="rgb(16.625977%, 16.751099%, 67.741394%)" offset="0.136719"/><stop stop-opacity="1" stop-color="rgb(17.175293%, 17.407227%, 67.987061%)" offset="0.140625"/><stop stop-opacity="1" stop-color="rgb(17.724609%, 18.063354%, 68.231201%)" offset="0.144531"/><stop stop-opacity="1" stop-color="rgb(18.273926%, 18.719482%, 68.476868%)" offset="0.148438"/><stop stop-opacity="1" stop-color="rgb(18.823242%, 19.374084%, 68.721008%)" offset="0.152344"/><stop stop-opacity="1" stop-color="rgb(19.372559%, 20.030212%, 68.966675%)" offset="0.15625"/><stop stop-opacity="1" stop-color="rgb(19.921875%, 20.68634%, 69.210815%)" offset="0.160156"/><stop stop-opacity="1" stop-color="rgb(20.471191%, 21.342468%, 69.456482%)" offset="0.164062"/><stop stop-opacity="1" stop-color="rgb(21.018982%, 21.99707%, 69.700623%)" offset="0.167969"/><stop stop-opacity="1" stop-color="rgb(21.568298%, 22.653198%, 69.944763%)" offset="0.171875"/><stop stop-opacity="1" stop-color="rgb(22.117615%, 23.3078%, 70.188904%)" offset="0.175781"/><stop stop-opacity="1" stop-color="rgb(22.666931%, 23.963928%, 70.43457%)" offset="0.179688"/><stop stop-opacity="1" stop-color="rgb(23.216248%, 24.620056%, 70.678711%)" offset="0.183594"/><stop stop-opacity="1" stop-color="rgb(23.765564%, 25.276184%, 70.924377%)" offset="0.1875"/><stop stop-opacity="1" stop-color="rgb(24.31488%, 25.930786%, 71.168518%)" offset="0.191406"/><stop stop-opacity="1" stop-color="rgb(24.864197%, 26.586914%, 71.414185%)" offset="0.195312"/><stop stop-opacity="1" stop-color="rgb(25.411987%, 27.243042%, 71.658325%)" offset="0.199219"/><stop stop-opacity="1" stop-color="rgb(25.961304%, 27.89917%, 71.903992%)" offset="0.203125"/><stop stop-opacity="1" stop-color="rgb(26.51062%, 28.553772%, 72.148132%)" offset="0.207031"/><stop stop-opacity="1" stop-color="rgb(27.059937%, 29.2099%, 72.392273%)" offset="0.210937"/><stop stop-opacity="1" stop-color="rgb(27.609253%, 29.864502%, 72.636414%)" offset="0.214844"/><stop stop-opacity="1" stop-color="rgb(28.158569%, 30.52063%, 72.88208%)" offset="0.21875"/><stop stop-opacity="1" stop-color="rgb(28.70636%, 31.176758%, 73.126221%)" offset="0.222656"/><stop stop-opacity="1" stop-color="rgb(29.255676%, 31.832886%, 73.371887%)" offset="0.226563"/><stop stop-opacity="1" stop-color="rgb(29.804993%, 32.487488%, 73.616028%)" offset="0.230469"/><stop stop-opacity="1" stop-color="rgb(30.354309%, 33.143616%, 73.861694%)" offset="0.234375"/><stop stop-opacity="1" stop-color="rgb(30.903625%, 33.799744%, 74.105835%)" offset="0.238281"/><stop stop-opacity="1" stop-color="rgb(31.452942%, 34.455872%, 74.351501%)" offset="0.242187"/><stop stop-opacity="1" stop-color="rgb(32.002258%, 35.110474%, 74.595642%)" offset="0.246094"/><stop stop-opacity="1" stop-color="rgb(32.551575%, 35.766602%, 74.839783%)" offset="0.25"/><stop stop-opacity="1" stop-color="rgb(33.099365%, 36.421204%, 75.083923%)" offset="0.253906"/><stop stop-opacity="1" stop-color="rgb(33.648682%, 37.077332%, 75.32959%)" offset="0.257812"/><stop stop-opacity="1" stop-color="rgb(34.197998%, 37.733459%, 75.57373%)" offset="0.261719"/><stop stop-opacity="1" stop-color="rgb(34.747314%, 38.389587%, 75.819397%)" offset="0.265625"/><stop stop-opacity="1" stop-color="rgb(35.296631%, 39.044189%, 76.063538%)" offset="0.269531"/><stop stop-opacity="1" stop-color="rgb(35.845947%, 39.700317%, 76.309204%)" offset="0.273438"/><stop stop-opacity="1" stop-color="rgb(36.395264%, 40.356445%, 76.553345%)" offset="0.277344"/><stop stop-opacity="1" stop-color="rgb(36.94458%, 41.012573%, 76.797485%)" offset="0.28125"/><stop stop-opacity="1" stop-color="rgb(37.492371%, 41.667175%, 77.041626%)" offset="0.285156"/><stop stop-opacity="1" stop-color="rgb(38.041687%, 42.323303%, 77.287292%)" offset="0.289063"/><stop stop-opacity="1" stop-color="rgb(38.591003%, 42.977905%, 77.531433%)" offset="0.292969"/><stop stop-opacity="1" stop-color="rgb(39.14032%, 43.634033%, 77.7771%)" offset="0.296875"/><stop stop-opacity="1" stop-color="rgb(39.689636%, 44.290161%, 78.02124%)" offset="0.300781"/><stop stop-opacity="1" stop-color="rgb(40.238953%, 44.946289%, 78.266907%)" offset="0.304688"/><stop stop-opacity="1" stop-color="rgb(40.786743%, 45.600891%, 78.511047%)" offset="0.308594"/><stop stop-opacity="1" stop-color="rgb(41.33606%, 46.257019%, 78.756714%)" offset="0.3125"/><stop stop-opacity="1" stop-color="rgb(41.885376%, 46.913147%, 79.000854%)" offset="0.316406"/><stop stop-opacity="1" stop-color="rgb(42.434692%, 47.569275%, 79.244995%)" offset="0.320313"/><stop stop-opacity="1" stop-color="rgb(42.984009%, 48.223877%, 79.489136%)" offset="0.324219"/><stop stop-opacity="1" stop-color="rgb(43.533325%, 48.880005%, 79.734802%)" offset="0.328125"/><stop stop-opacity="1" stop-color="rgb(44.082642%, 49.536133%, 79.978943%)" offset="0.332031"/><stop stop-opacity="1" stop-color="rgb(44.631958%, 50.192261%, 80.224609%)" offset="0.335938"/><stop stop-opacity="1" stop-color="rgb(45.179749%, 50.846863%, 80.46875%)" offset="0.339844"/><stop stop-opacity="1" stop-color="rgb(45.729065%, 51.502991%, 80.714417%)" offset="0.34375"/><stop stop-opacity="1" stop-color="rgb(46.278381%, 52.157593%, 80.958557%)" offset="0.347656"/><stop stop-opacity="1" stop-color="rgb(46.827698%, 52.813721%, 81.204224%)" offset="0.351562"/><stop stop-opacity="1" stop-color="rgb(47.377014%, 53.469849%, 81.448364%)" offset="0.355469"/><stop stop-opacity="1" stop-color="rgb(47.926331%, 54.125977%, 81.692505%)" offset="0.359375"/><stop stop-opacity="1" stop-color="rgb(48.474121%, 54.780579%, 81.936646%)" offset="0.363281"/><stop stop-opacity="1" stop-color="rgb(49.023438%, 55.436707%, 82.182312%)" offset="0.367188"/><stop stop-opacity="1" stop-color="rgb(49.572754%, 56.092834%, 82.426453%)" offset="0.371094"/><stop stop-opacity="1" stop-color="rgb(50.12207%, 56.748962%, 82.672119%)" offset="0.375"/><stop stop-opacity="1" stop-color="rgb(50.671387%, 57.403564%, 82.91626%)" offset="0.378906"/><stop stop-opacity="1" stop-color="rgb(51.220703%, 58.059692%, 83.161926%)" offset="0.382812"/><stop stop-opacity="1" stop-color="rgb(51.77002%, 58.714294%, 83.406067%)" offset="0.386719"/><stop stop-opacity="1" stop-color="rgb(52.319336%, 59.370422%, 83.651733%)" offset="0.390625"/><stop stop-opacity="1" stop-color="rgb(52.867126%, 60.02655%, 83.895874%)" offset="0.394531"/><stop stop-opacity="1" stop-color="rgb(53.416443%, 60.682678%, 84.140015%)" offset="0.398438"/><stop stop-opacity="1" stop-color="rgb(53.965759%, 61.33728%, 84.384155%)" offset="0.402344"/><stop stop-opacity="1" stop-color="rgb(54.515076%, 61.993408%, 84.629822%)" offset="0.40625"/><stop stop-opacity="1" stop-color="rgb(55.064392%, 62.649536%, 84.873962%)" offset="0.410156"/><stop stop-opacity="1" stop-color="rgb(55.613708%, 63.305664%, 85.119629%)" offset="0.414062"/><stop stop-opacity="1" stop-color="rgb(56.163025%, 63.960266%, 85.36377%)" offset="0.417969"/><stop stop-opacity="1" stop-color="rgb(56.712341%, 64.616394%, 85.609436%)" offset="0.421875"/><stop stop-opacity="1" stop-color="rgb(57.260132%, 65.270996%, 85.853577%)" offset="0.425781"/><stop stop-opacity="1" stop-color="rgb(57.809448%, 65.927124%, 86.099243%)" offset="0.429687"/><stop stop-opacity="1" stop-color="rgb(58.358765%, 66.583252%, 86.343384%)" offset="0.433594"/><stop stop-opacity="1" stop-color="rgb(58.908081%, 67.23938%, 86.587524%)" offset="0.4375"/><stop stop-opacity="1" stop-color="rgb(59.457397%, 67.893982%, 86.831665%)" offset="0.441406"/><stop stop-opacity="1" stop-color="rgb(60.006714%, 68.55011%, 87.077332%)" offset="0.445312"/><stop stop-opacity="1" stop-color="rgb(60.554504%, 69.206238%, 87.321472%)" offset="0.449219"/><stop stop-opacity="1" stop-color="rgb(61.103821%, 69.862366%, 87.567139%)" offset="0.453125"/><stop stop-opacity="1" stop-color="rgb(61.653137%, 70.516968%, 87.811279%)" offset="0.457031"/><stop stop-opacity="1" stop-color="rgb(62.202454%, 71.173096%, 88.056946%)" offset="0.460937"/><stop stop-opacity="1" stop-color="rgb(62.75177%, 71.827698%, 88.301086%)" offset="0.464844"/><stop stop-opacity="1" stop-color="rgb(63.301086%, 72.483826%, 88.546753%)" offset="0.46875"/><stop stop-opacity="1" stop-color="rgb(63.850403%, 73.139954%, 88.790894%)" offset="0.472656"/><stop stop-opacity="1" stop-color="rgb(64.399719%, 73.796082%, 89.035034%)" offset="0.476562"/><stop stop-opacity="1" stop-color="rgb(64.94751%, 74.450684%, 89.279175%)" offset="0.480469"/><stop stop-opacity="1" stop-color="rgb(65.496826%, 75.106812%, 89.524841%)" offset="0.484375"/><stop stop-opacity="1" stop-color="rgb(66.046143%, 75.762939%, 89.768982%)" offset="0.488281"/><stop stop-opacity="1" stop-color="rgb(66.595459%, 76.419067%, 90.014648%)" offset="0.492188"/><stop stop-opacity="1" stop-color="rgb(67.144775%, 77.073669%, 90.258789%)" offset="0.496094"/><stop stop-opacity="1" stop-color="rgb(67.694092%, 77.729797%, 90.504456%)" offset="0.5"/><stop stop-opacity="1" stop-color="rgb(68.243408%, 78.384399%, 90.748596%)" offset="0.503906"/><stop stop-opacity="1" stop-color="rgb(68.792725%, 79.040527%, 90.994263%)" offset="0.507812"/><stop stop-opacity="1" stop-color="rgb(69.340515%, 79.696655%, 91.238403%)" offset="0.511719"/><stop stop-opacity="1" stop-color="rgb(69.889832%, 80.352783%, 91.482544%)" offset="0.515625"/><stop stop-opacity="1" stop-color="rgb(70.103455%, 80.610657%, 91.574097%)" offset="0.519531"/><stop stop-opacity="1" stop-color="rgb(70.318604%, 80.870056%, 91.665649%)" offset="0.523438"/><stop stop-opacity="1" stop-color="rgb(69.923401%, 80.404663%, 91.47644%)" offset="0.527344"/><stop stop-opacity="1" stop-color="rgb(69.528198%, 79.940796%, 91.287231%)" offset="0.53125"/><stop stop-opacity="1" stop-color="rgb(69.132996%, 79.475403%, 91.098022%)" offset="0.535156"/><stop stop-opacity="1" stop-color="rgb(68.737793%, 79.011536%, 90.910339%)" offset="0.539062"/><stop stop-opacity="1" stop-color="rgb(68.34259%, 78.546143%, 90.72113%)" offset="0.542969"/><stop stop-opacity="1" stop-color="rgb(67.947388%, 78.08075%, 90.531921%)" offset="0.546875"/><stop stop-opacity="1" stop-color="rgb(67.552185%, 77.615356%, 90.342712%)" offset="0.550781"/><stop stop-opacity="1" stop-color="rgb(67.156982%, 77.151489%, 90.155029%)" offset="0.554688"/><stop stop-opacity="1" stop-color="rgb(66.76178%, 76.686096%, 89.96582%)" offset="0.558594"/><stop stop-opacity="1" stop-color="rgb(66.366577%, 76.222229%, 89.776611%)" offset="0.5625"/><stop stop-opacity="1" stop-color="rgb(65.971375%, 75.756836%, 89.587402%)" offset="0.566406"/><stop stop-opacity="1" stop-color="rgb(65.576172%, 75.292969%, 89.399719%)" offset="0.570312"/><stop stop-opacity="1" stop-color="rgb(65.180969%, 74.827576%, 89.21051%)" offset="0.574219"/><stop stop-opacity="1" stop-color="rgb(64.785767%, 74.363708%, 89.021301%)" offset="0.578125"/><stop stop-opacity="1" stop-color="rgb(64.390564%, 73.898315%, 88.832092%)" offset="0.582031"/><stop stop-opacity="1" stop-color="rgb(63.995361%, 73.434448%, 88.644409%)" offset="0.585938"/><stop stop-opacity="1" stop-color="rgb(63.600159%, 72.969055%, 88.4552%)" offset="0.589844"/><stop stop-opacity="1" stop-color="rgb(63.204956%, 72.505188%, 88.265991%)" offset="0.59375"/><stop stop-opacity="1" stop-color="rgb(62.808228%, 72.039795%, 88.076782%)" offset="0.597656"/><stop stop-opacity="1" stop-color="rgb(62.413025%, 71.575928%, 87.889099%)" offset="0.601562"/><stop stop-opacity="1" stop-color="rgb(62.017822%, 71.110535%, 87.69989%)" offset="0.605469"/><stop stop-opacity="1" stop-color="rgb(61.62262%, 70.645142%, 87.510681%)" offset="0.609375"/><stop stop-opacity="1" stop-color="rgb(61.227417%, 70.179749%, 87.321472%)" offset="0.613281"/><stop stop-opacity="1" stop-color="rgb(60.832214%, 69.715881%, 87.133789%)" offset="0.617188"/><stop stop-opacity="1" stop-color="rgb(60.437012%, 69.250488%, 86.94458%)" offset="0.621094"/><stop stop-opacity="1" stop-color="rgb(60.041809%, 68.786621%, 86.755371%)" offset="0.625"/><stop stop-opacity="1" stop-color="rgb(59.646606%, 68.321228%, 86.566162%)" offset="0.628906"/><stop stop-opacity="1" stop-color="rgb(59.251404%, 67.857361%, 86.378479%)" offset="0.632813"/><stop stop-opacity="1" stop-color="rgb(58.856201%, 67.391968%, 86.18927%)" offset="0.636719"/><stop stop-opacity="1" stop-color="rgb(58.460999%, 66.928101%, 86.000061%)" offset="0.640625"/><stop stop-opacity="1" stop-color="rgb(58.065796%, 66.462708%, 85.810852%)" offset="0.644531"/><stop stop-opacity="1" stop-color="rgb(57.670593%, 65.99884%, 85.623169%)" offset="0.648438"/><stop stop-opacity="1" stop-color="rgb(57.275391%, 65.533447%, 85.43396%)" offset="0.652344"/><stop stop-opacity="1" stop-color="rgb(56.880188%, 65.06958%, 85.244751%)" offset="0.65625"/><stop stop-opacity="1" stop-color="rgb(56.484985%, 64.604187%, 85.055542%)" offset="0.660156"/><stop stop-opacity="1" stop-color="rgb(56.089783%, 64.14032%, 84.867859%)" offset="0.664062"/><stop stop-opacity="1" stop-color="rgb(55.69458%, 63.674927%, 84.67865%)" offset="0.667969"/><stop stop-opacity="1" stop-color="rgb(55.299377%, 63.209534%, 84.489441%)" offset="0.671875"/><stop stop-opacity="1" stop-color="rgb(54.904175%, 62.744141%, 84.300232%)" offset="0.675781"/><stop stop-opacity="1" stop-color="rgb(54.508972%, 62.280273%, 84.112549%)" offset="0.679688"/><stop stop-opacity="1" stop-color="rgb(54.11377%, 61.81488%, 83.92334%)" offset="0.683594"/><stop stop-opacity="1" stop-color="rgb(53.718567%, 61.351013%, 83.734131%)" offset="0.6875"/><stop stop-opacity="1" stop-color="rgb(53.323364%, 60.88562%, 83.544922%)" offset="0.691406"/><stop stop-opacity="1" stop-color="rgb(52.928162%, 60.421753%, 83.357239%)" offset="0.695313"/><stop stop-opacity="1" stop-color="rgb(52.531433%, 59.95636%, 83.16803%)" offset="0.699219"/><stop stop-opacity="1" stop-color="rgb(52.13623%, 59.492493%, 82.978821%)" offset="0.703125"/><stop stop-opacity="1" stop-color="rgb(51.741028%, 59.0271%, 82.789612%)" offset="0.707031"/><stop stop-opacity="1" stop-color="rgb(51.345825%, 58.563232%, 82.601929%)" offset="0.710938"/><stop stop-opacity="1" stop-color="rgb(50.950623%, 58.097839%, 82.41272%)" offset="0.714844"/><stop stop-opacity="1" stop-color="rgb(50.55542%, 57.633972%, 82.223511%)" offset="0.71875"/><stop stop-opacity="1" stop-color="rgb(50.160217%, 57.168579%, 82.034302%)" offset="0.722656"/><stop stop-opacity="1" stop-color="rgb(49.765015%, 56.703186%, 81.846619%)" offset="0.726562"/><stop stop-opacity="1" stop-color="rgb(49.369812%, 56.237793%, 81.65741%)" offset="0.730469"/><stop stop-opacity="1" stop-color="rgb(48.974609%, 55.773926%, 81.468201%)" offset="0.734375"/><stop stop-opacity="1" stop-color="rgb(48.579407%, 55.308533%, 81.278992%)" offset="0.738281"/><stop stop-opacity="1" stop-color="rgb(48.184204%, 54.844666%, 81.091309%)" offset="0.742188"/><stop stop-opacity="1" stop-color="rgb(47.789001%, 54.379272%, 80.9021%)" offset="0.746094"/><stop stop-opacity="1" stop-color="rgb(47.393799%, 53.915405%, 80.712891%)" offset="0.75"/><stop stop-opacity="1" stop-color="rgb(46.998596%, 53.450012%, 80.523682%)" offset="0.753906"/><stop stop-opacity="1" stop-color="rgb(46.603394%, 52.986145%, 80.335999%)" offset="0.757812"/><stop stop-opacity="1" stop-color="rgb(46.208191%, 52.520752%, 80.14679%)" offset="0.761719"/><stop stop-opacity="1" stop-color="rgb(45.812988%, 52.056885%, 79.957581%)" offset="0.765625"/><stop stop-opacity="1" stop-color="rgb(45.417786%, 51.591492%, 79.768372%)" offset="0.769531"/><stop stop-opacity="1" stop-color="rgb(45.022583%, 51.127625%, 79.580688%)" offset="0.773438"/><stop stop-opacity="1" stop-color="rgb(44.62738%, 50.662231%, 79.391479%)" offset="0.777344"/><stop stop-opacity="1" stop-color="rgb(44.232178%, 50.198364%, 79.202271%)" offset="0.78125"/><stop stop-opacity="1" stop-color="rgb(43.836975%, 49.732971%, 79.013062%)" offset="0.785156"/><stop stop-opacity="1" stop-color="rgb(43.441772%, 49.267578%, 78.825378%)" offset="0.789062"/><stop stop-opacity="1" stop-color="rgb(43.045044%, 48.802185%, 78.636169%)" offset="0.792969"/><stop stop-opacity="1" stop-color="rgb(42.649841%, 48.338318%, 78.44696%)" offset="0.796875"/><stop stop-opacity="1" stop-color="rgb(42.254639%, 47.872925%, 78.257751%)" offset="0.800781"/><stop stop-opacity="1" stop-color="rgb(41.859436%, 47.409058%, 78.070068%)" offset="0.804687"/><stop stop-opacity="1" stop-color="rgb(41.464233%, 46.943665%, 77.880859%)" offset="0.808594"/><stop stop-opacity="1" stop-color="rgb(41.069031%, 46.479797%, 77.69165%)" offset="0.8125"/><stop stop-opacity="1" stop-color="rgb(40.673828%, 46.014404%, 77.502441%)" offset="0.816406"/><stop stop-opacity="1" stop-color="rgb(40.278625%, 45.550537%, 77.314758%)" offset="0.820312"/><stop stop-opacity="1" stop-color="rgb(39.883423%, 45.085144%, 77.125549%)" offset="0.824219"/><stop stop-opacity="1" stop-color="rgb(39.48822%, 44.621277%, 76.93634%)" offset="0.828125"/><stop stop-opacity="1" stop-color="rgb(39.093018%, 44.155884%, 76.747131%)" offset="0.832031"/><stop stop-opacity="1" stop-color="rgb(38.697815%, 43.692017%, 76.559448%)" offset="0.835938"/><stop stop-opacity="1" stop-color="rgb(38.302612%, 43.226624%, 76.370239%)" offset="0.839844"/><stop stop-opacity="1" stop-color="rgb(37.90741%, 42.762756%, 76.18103%)" offset="0.84375"/><stop stop-opacity="1" stop-color="rgb(37.512207%, 42.297363%, 75.991821%)" offset="0.847656"/><stop stop-opacity="1" stop-color="rgb(37.117004%, 41.83197%, 75.804138%)" offset="0.851562"/><stop stop-opacity="1" stop-color="rgb(36.721802%, 41.366577%, 75.614929%)" offset="0.855469"/><stop stop-opacity="1" stop-color="rgb(36.326599%, 40.90271%, 75.42572%)" offset="0.859375"/><stop stop-opacity="1" stop-color="rgb(35.931396%, 40.437317%, 75.236511%)" offset="0.863281"/><stop stop-opacity="1" stop-color="rgb(35.536194%, 39.97345%, 75.048828%)" offset="0.867187"/><stop stop-opacity="1" stop-color="rgb(35.140991%, 39.508057%, 74.859619%)" offset="0.871094"/><stop stop-opacity="1" stop-color="rgb(34.745789%, 39.044189%, 74.67041%)" offset="0.875"/><stop stop-opacity="1" stop-color="rgb(34.350586%, 38.578796%, 74.481201%)" offset="0.878906"/><stop stop-opacity="1" stop-color="rgb(33.955383%, 38.114929%, 74.293518%)" offset="0.882812"/><stop stop-opacity="1" stop-color="rgb(33.558655%, 37.649536%, 74.104309%)" offset="0.886719"/><stop stop-opacity="1" stop-color="rgb(33.163452%, 37.185669%, 73.9151%)" offset="0.890625"/><stop stop-opacity="1" stop-color="rgb(32.76825%, 36.720276%, 73.725891%)" offset="0.894531"/><stop stop-opacity="1" stop-color="rgb(32.373047%, 36.256409%, 73.538208%)" offset="0.898438"/><stop stop-opacity="1" stop-color="rgb(31.977844%, 35.791016%, 73.348999%)" offset="0.902344"/><stop stop-opacity="1" stop-color="rgb(31.582642%, 35.325623%, 73.15979%)" offset="0.90625"/><stop stop-opacity="1" stop-color="rgb(31.187439%, 34.860229%, 72.970581%)" offset="0.910156"/><stop stop-opacity="1" stop-color="rgb(30.792236%, 34.396362%, 72.782898%)" offset="0.914062"/><stop stop-opacity="1" stop-color="rgb(30.49469%, 34.046936%, 72.640991%)" offset="0.917969"/><stop stop-opacity="1" stop-color="rgb(30.198669%, 33.699036%, 72.499084%)" offset="0.921875"/><stop stop-opacity="1" stop-color="rgb(30.198669%, 33.699036%, 72.499084%)" offset="0.9375"/><stop stop-opacity="1" stop-color="rgb(30.198669%, 33.699036%, 72.499084%)" offset="1"/></linearGradient></defs><g clip-path="url(#9da0ece9df)"><g clip-path="url(#389ab633e5)"><path fill="url(#f61692606a)" d="M 112.636719 112.511719 L 112.636719 262.484375 L 262.636719 262.484375 L 262.636719 112.511719 Z M 112.636719 112.511719 " fill-rule="nonzero"/></g></g></svg>